<svg width="884" height="192" viewBox="0 0 884 192" fill="none" xmlns="http://www.w3.org/2000/svg">
<path d="M174.285 124V72.4961H204.766L204.414 80.0547H183.742V94.6797H203.395V102.168H183.742V124H174.285ZM212.43 124V85.3633H221.641V124H212.43ZM212.43 79.7383V71.8633H221.676V79.7383H212.43ZM231.273 124V85.3633H238.691L239.711 90.25C243.648 86.3594 248.02 84.4141 252.824 84.4141C257.324 84.4141 260.688 85.7148 262.914 88.3164C265.164 90.8945 266.289 94.6445 266.289 99.5664V124H257.043V100.691C257.02 97.5742 256.516 95.2422 255.531 93.6953C254.547 92.1484 252.777 91.375 250.223 91.375C248.23 91.375 246.402 91.8906 244.738 92.9219C243.098 93.9297 241.902 95.207 241.152 96.7539C240.707 98.582 240.484 101.395 240.484 105.191V124H231.273ZM289.738 124.738C284.699 124.738 280.738 122.887 277.855 119.184C274.973 115.48 273.531 110.535 273.531 104.348C273.531 98.3477 274.961 93.5312 277.82 89.8984C280.703 86.2422 284.664 84.4141 289.703 84.4141C295.188 84.4141 299.066 86.3594 301.34 90.25C301.105 87.9531 300.988 85.7383 300.988 83.6055V71.125L310.199 70.5273V124H302.219L301.199 118.727C300.801 119.359 300.426 119.91 300.074 120.379C299.746 120.824 299.254 121.352 298.598 121.961C297.941 122.547 297.227 123.027 296.453 123.402C295.703 123.754 294.742 124.059 293.57 124.316C292.422 124.598 291.145 124.738 289.738 124.738ZM291.918 117.742C298.105 117.742 301.246 113.535 301.34 105.121C301.34 100.363 300.543 96.8945 298.949 94.7148C297.355 92.5352 294.977 91.4453 291.812 91.4453C289.047 91.4453 286.832 92.5586 285.168 94.7852C283.527 96.9883 282.707 100.246 282.707 104.559C282.707 108.848 283.527 112.117 285.168 114.367C286.832 116.617 289.082 117.742 291.918 117.742ZM340.75 140.277C339.25 140.277 337.656 140.184 335.969 139.996L335.512 132.859C336.59 132.977 337.961 133.035 339.625 133.035C341.758 133.035 343.469 132.613 344.758 131.77C346.047 130.926 347.113 129.426 347.957 127.27C348.051 127.035 348.52 125.711 349.363 123.297L333.824 85.3633H343.668L353.828 113.383C354.578 110.594 356.254 105.414 358.855 97.8438C361.48 90.2734 362.922 86.1133 363.18 85.3633H373.023C362.312 113.676 356.91 127.949 356.816 128.184C355.152 132.52 353.055 135.613 350.523 137.465C347.992 139.34 344.734 140.277 340.75 140.277ZM394.434 117.742C397.551 117.742 399.895 116.605 401.465 114.332C403.035 112.059 403.82 108.801 403.82 104.559C403.82 100.27 403.035 97 401.465 94.75C399.895 92.5 397.527 91.375 394.363 91.375C391.246 91.375 388.891 92.5117 387.297 94.7852C385.727 97.0352 384.941 100.305 384.941 104.594C384.941 108.812 385.738 112.059 387.332 114.332C388.926 116.605 391.293 117.742 394.434 117.742ZM394.188 124.738C388.469 124.738 383.969 122.887 380.688 119.184C377.406 115.48 375.766 110.605 375.766 104.559C375.766 98.3242 377.406 93.4141 380.688 89.8281C383.969 86.2188 388.598 84.4141 394.574 84.4141C400.34 84.4141 404.852 86.2539 408.109 89.9336C411.391 93.5898 413.031 98.4648 413.031 104.559C413.031 110.723 411.379 115.633 408.074 119.289C404.77 122.922 400.141 124.738 394.188 124.738ZM448.434 120.977C445.363 123.484 441.32 124.738 436.305 124.738C431.289 124.738 427.246 123.484 424.176 120.977C421.129 118.469 419.605 114.789 419.605 109.938V85.3633H428.852V109.586C428.852 112.469 429.449 114.555 430.645 115.844C431.863 117.133 433.785 117.777 436.41 117.777C438.988 117.777 440.863 117.145 442.035 115.879C443.23 114.59 443.828 112.492 443.828 109.586V85.3633H453.039V109.938C453.039 114.766 451.504 118.445 448.434 120.977ZM461.512 124V85.3633H469.246L470.441 91.2695C472.973 87.2148 476.641 85.1875 481.445 85.1875C482.453 85.1875 483.273 85.2344 483.906 85.3281L483.766 93.0273C482.828 92.8867 481.855 92.8164 480.848 92.8164C477.449 92.8164 474.906 93.7188 473.219 95.5234C471.555 97.3281 470.723 99.8359 470.723 103.047V124H461.512Z" fill="#3A2727"/>
<path d="M520.926 124.703C515.23 124.703 510.672 123.73 507.25 121.785L508.199 114.859C509.746 115.703 511.715 116.465 514.105 117.145C516.496 117.801 518.676 118.129 520.645 118.129C522.684 118.129 524.266 117.754 525.391 117.004C526.539 116.23 527.125 115.105 527.148 113.629C527.148 112.293 526.609 111.238 525.531 110.465C524.477 109.691 522.449 108.73 519.449 107.582C518.418 107.207 517.75 106.961 517.445 106.844C513.883 105.461 511.316 103.926 509.746 102.238C508.176 100.527 507.391 98.2188 507.391 95.3125C507.391 91.7969 508.656 89.1016 511.188 87.2266C513.742 85.3516 517.293 84.4141 521.84 84.4141C526.762 84.4141 531.086 85.3398 534.812 87.1914L532.527 93.5547C528.848 91.8438 525.344 90.9883 522.016 90.9883C520.164 90.9883 518.711 91.3047 517.656 91.9375C516.625 92.5469 516.109 93.4844 516.109 94.75C516.109 95.9453 516.613 96.8828 517.621 97.5625C518.629 98.2188 520.598 99.0859 523.527 100.164C523.621 100.188 523.926 100.293 524.441 100.48C524.957 100.668 525.355 100.82 525.637 100.938C529.176 102.227 531.777 103.773 533.441 105.578C535.105 107.359 535.938 109.691 535.938 112.574C535.914 116.441 534.602 119.43 532 121.539C529.398 123.648 525.707 124.703 520.926 124.703ZM543.25 140.066V85.3633H551.16L552.145 90.7773C553.41 88.7383 555.086 87.168 557.172 86.0664C559.281 84.9414 561.625 84.3789 564.203 84.3789C567.367 84.3789 570.145 85.2578 572.535 87.0156C574.949 88.7734 576.777 91.1758 578.02 94.2227C579.262 97.2461 579.883 100.668 579.883 104.488C579.883 110.465 578.43 115.34 575.523 119.113C572.641 122.863 568.727 124.738 563.781 124.738C561.344 124.738 559.129 124.258 557.137 123.297C555.168 122.312 553.516 120.988 552.18 119.324C552.367 122.699 552.461 124.598 552.461 125.02V139.609L543.25 140.066ZM561.812 117.707C564.555 117.707 566.711 116.559 568.281 114.262C569.875 111.965 570.672 108.684 570.672 104.418C570.672 100.082 569.875 96.8242 568.281 94.6445C566.688 92.4648 564.473 91.375 561.637 91.375C555.543 91.375 552.461 95.5234 552.391 103.82C552.391 108.602 553.176 112.117 554.746 114.367C556.34 116.594 558.695 117.707 561.812 117.707ZM597.461 124.738C593.875 124.738 590.969 123.754 588.742 121.785C586.539 119.793 585.438 116.934 585.438 113.207C585.438 109.199 586.75 106.234 589.375 104.312C592 102.367 595.961 101.137 601.258 100.621C601.984 100.527 602.77 100.434 603.613 100.34C604.457 100.246 605.406 100.152 606.461 100.059C607.516 99.9648 608.348 99.8828 608.957 99.8125V97.7734C608.957 95.4297 608.418 93.7305 607.34 92.6758C606.262 91.5977 604.621 91.0586 602.418 91.0586C599.277 91.0586 595.398 91.9375 590.781 93.6953C590.758 93.625 590.371 92.5586 589.621 90.4961C588.871 88.4336 588.484 87.3789 588.461 87.332C593.008 85.3867 597.93 84.4141 603.227 84.4141C608.43 84.4141 612.215 85.5508 614.582 87.8242C616.949 90.0742 618.133 93.7305 618.133 98.793V124H611.312C611.289 123.906 611.031 123.121 610.539 121.645C610.047 120.168 609.801 119.383 609.801 119.289C607.879 121.164 605.992 122.547 604.141 123.438C602.312 124.305 600.086 124.738 597.461 124.738ZM599.957 118.199C602.09 118.199 603.941 117.695 605.512 116.688C607.105 115.656 608.242 114.414 608.922 112.961V105.508C608.852 105.508 608.23 105.555 607.059 105.648C605.91 105.742 605.289 105.789 605.195 105.789C601.469 106.117 598.738 106.82 597.004 107.898C595.27 108.977 594.402 110.711 594.402 113.102C594.402 114.742 594.883 116.008 595.844 116.898C596.805 117.766 598.176 118.199 599.957 118.199ZM644.324 124.738C638.418 124.738 633.812 122.98 630.508 119.465C627.227 115.949 625.586 110.922 625.586 104.383C625.586 98.0547 627.309 93.1445 630.754 89.6523C634.223 86.1602 638.781 84.4141 644.43 84.4141C648.953 84.4141 652.773 85.3867 655.891 87.332L653.711 93.9062C650.523 92.2422 647.559 91.4102 644.816 91.4102C641.699 91.4102 639.238 92.5234 637.434 94.75C635.652 96.9766 634.762 100.223 634.762 104.488C634.762 108.801 635.641 112.082 637.398 114.332C639.18 116.582 641.688 117.707 644.922 117.707C648.297 117.707 651.543 116.711 654.66 114.719L655.539 121.715C653.922 122.793 652.246 123.566 650.512 124.035C648.777 124.504 646.715 124.738 644.324 124.738ZM680.43 124.738C674.219 124.738 669.379 122.957 665.91 119.395C662.465 115.809 660.742 110.863 660.742 104.559C660.742 98.418 662.371 93.5312 665.629 89.8984C668.887 86.2656 673.328 84.4375 678.953 84.4141C684.273 84.4141 688.398 86.0781 691.328 89.4062C694.281 92.7344 695.758 97.1523 695.758 102.66C695.758 103.059 695.746 103.703 695.723 104.594C695.723 105.484 695.723 106.141 695.723 106.562H670.023C670.117 110.172 671.102 112.973 672.977 114.965C674.875 116.934 677.477 117.918 680.781 117.918C685 117.918 689.055 116.816 692.945 114.613L694.246 121.152C690.379 123.543 685.773 124.738 680.43 124.738ZM670.199 100.762H687.074C687.074 97.6211 686.359 95.207 684.93 93.5195C683.5 91.832 681.52 90.9883 678.988 90.9883C676.621 90.9883 674.617 91.8086 672.977 93.4492C671.359 95.0898 670.434 97.5273 670.199 100.762ZM707.219 124.633C705.695 124.633 704.406 124.105 703.352 123.051C702.297 121.996 701.77 120.742 701.77 119.289C701.77 117.812 702.285 116.535 703.316 115.457C704.371 114.379 705.672 113.84 707.219 113.84C708.719 113.84 709.984 114.379 711.016 115.457C712.047 116.535 712.562 117.812 712.562 119.289C712.562 120.742 712.047 121.996 711.016 123.051C709.984 124.105 708.719 124.633 707.219 124.633Z" fill="#FF6F22"/>
<path d="M245.151 171H243.631V158.001H250.847L250.785 159.346H245.151V163.907H250.521V165.199H245.151V171ZM254.248 161.358V171H252.771V161.358H254.248ZM254.248 157.852V159.592H252.771V157.852H254.248ZM257.017 171V161.358H258.247L258.432 162.738C258.812 162.264 259.287 161.883 259.855 161.596C260.43 161.303 261.048 161.156 261.71 161.156C262.823 161.156 263.646 161.47 264.18 162.097C264.713 162.718 264.979 163.676 264.979 164.971V171H263.512C263.512 167.133 263.509 165.062 263.503 164.786C263.479 163.966 263.312 163.365 263.002 162.984C262.697 162.604 262.185 162.413 261.464 162.413C260.708 162.413 260.078 162.595 259.574 162.958C259.07 163.321 258.742 163.793 258.59 164.373C258.531 164.766 258.502 165.217 258.502 165.727V171H257.017ZM271.185 169.937C272.151 169.937 272.869 169.626 273.338 169.005C273.812 168.384 274.05 167.496 274.05 166.342C274.05 165.041 273.821 164.062 273.364 163.406C272.913 162.744 272.181 162.413 271.167 162.413C270.716 162.413 270.317 162.51 269.972 162.703C269.626 162.896 269.348 163.166 269.137 163.512C268.926 163.857 268.765 164.256 268.653 164.707C268.548 165.152 268.495 165.642 268.495 166.175C268.495 166.925 268.586 167.575 268.768 168.126C268.955 168.677 269.254 169.116 269.664 169.444C270.074 169.772 270.581 169.937 271.185 169.937ZM274.076 169.603C273.76 170.089 273.338 170.476 272.811 170.763C272.283 171.05 271.694 171.193 271.044 171.193C269.772 171.193 268.776 170.742 268.056 169.84C267.335 168.932 266.975 167.698 266.975 166.14C266.975 164.651 267.341 163.45 268.073 162.536C268.806 161.616 269.787 161.156 271.018 161.156C271.656 161.156 272.257 161.297 272.819 161.578C273.388 161.854 273.812 162.226 274.094 162.694L274.067 161.859V157.614L275.518 157.526V171H274.27L274.076 169.603ZM285.449 171.202C284.793 171.202 284.187 171.132 283.63 170.991C283.079 170.851 282.631 170.669 282.285 170.446L282.47 169.207C283.448 169.729 284.409 169.989 285.353 169.989C286.782 169.989 287.518 169.485 287.559 168.478C287.559 168.05 287.406 167.713 287.102 167.467C286.797 167.221 286.199 166.945 285.309 166.641L284.579 166.386C283.735 166.104 283.132 165.756 282.769 165.34C282.411 164.924 282.229 164.405 282.224 163.784C282.224 163.028 282.525 162.401 283.129 161.903C283.738 161.405 284.57 161.156 285.625 161.156C286.715 161.156 287.708 161.367 288.604 161.789L288.174 162.914C287.266 162.539 286.416 162.352 285.625 162.352C285.01 162.352 284.526 162.475 284.175 162.721C283.829 162.961 283.656 163.301 283.656 163.74C283.656 164.115 283.782 164.402 284.034 164.602C284.286 164.801 284.79 165.029 285.546 165.287C285.739 165.357 285.982 165.439 286.275 165.533C287.248 165.85 287.937 166.225 288.341 166.658C288.745 167.086 288.947 167.666 288.947 168.398C288.936 169.289 288.616 169.98 287.989 170.473C287.362 170.959 286.516 171.202 285.449 171.202ZM294.036 171.176C293.087 171.176 292.413 170.944 292.015 170.481C291.616 170.019 291.405 169.271 291.382 168.24V162.448H289.949L290.011 161.481L291.373 161.358L291.874 159.152L292.841 159.117V161.358H295.521V162.448H292.841V167.977C292.841 168.709 292.952 169.225 293.175 169.523C293.397 169.822 293.778 169.972 294.317 169.972C294.511 169.972 294.93 169.925 295.574 169.831L295.636 170.991C294.938 171.114 294.405 171.176 294.036 171.176ZM296.866 167.783V161.358H298.343V167.801C298.343 168.223 298.401 168.58 298.519 168.873C298.642 169.166 298.814 169.395 299.037 169.559C299.266 169.717 299.521 169.831 299.802 169.901C300.089 169.972 300.417 170.007 300.786 170.007C301.548 170.007 302.14 169.84 302.562 169.506C302.989 169.172 303.203 168.604 303.203 167.801V161.358H304.68V167.783C304.68 168.275 304.609 168.718 304.469 169.11C304.328 169.503 304.138 169.831 303.897 170.095C303.663 170.353 303.379 170.566 303.045 170.736C302.711 170.906 302.356 171.029 301.981 171.105C301.612 171.182 301.214 171.22 300.786 171.22C300.364 171.22 299.966 171.182 299.591 171.105C299.216 171.029 298.858 170.906 298.519 170.736C298.185 170.561 297.895 170.344 297.648 170.086C297.408 169.822 297.218 169.494 297.077 169.102C296.937 168.709 296.866 168.27 296.866 167.783ZM310.63 169.937C311.597 169.937 312.314 169.626 312.783 169.005C313.258 168.384 313.495 167.496 313.495 166.342C313.495 165.041 313.267 164.062 312.81 163.406C312.358 162.744 311.626 162.413 310.612 162.413C310.161 162.413 309.763 162.51 309.417 162.703C309.071 162.896 308.793 163.166 308.582 163.512C308.371 163.857 308.21 164.256 308.099 164.707C307.993 165.152 307.94 165.642 307.94 166.175C307.94 166.925 308.031 167.575 308.213 168.126C308.4 168.677 308.699 169.116 309.109 169.444C309.52 169.772 310.026 169.937 310.63 169.937ZM313.521 169.603C313.205 170.089 312.783 170.476 312.256 170.763C311.729 171.05 311.14 171.193 310.489 171.193C309.218 171.193 308.222 170.742 307.501 169.84C306.78 168.932 306.42 167.698 306.42 166.14C306.42 164.651 306.786 163.45 307.519 162.536C308.251 161.616 309.232 161.156 310.463 161.156C311.102 161.156 311.702 161.297 312.265 161.578C312.833 161.854 313.258 162.226 313.539 162.694L313.513 161.859V157.614L314.963 157.526V171H313.715L313.521 169.603ZM316.29 161.358H317.846L320.887 169.383L323.594 161.358H325.149C322.548 168.519 321.203 172.21 321.115 172.433C320.711 173.446 320.222 174.188 319.647 174.656C319.073 175.131 318.317 175.368 317.38 175.368C317.099 175.368 316.803 175.345 316.492 175.298L316.404 174.05C316.732 174.073 316.979 174.085 317.143 174.085C317.805 174.085 318.306 173.962 318.646 173.716C318.991 173.476 319.299 173.021 319.568 172.354C319.809 171.738 319.987 171.264 320.104 170.93L316.29 161.358ZM333.877 171.202C333.221 171.202 332.614 171.132 332.058 170.991C331.507 170.851 331.059 170.669 330.713 170.446L330.897 169.207C331.876 169.729 332.837 169.989 333.78 169.989C335.21 169.989 335.945 169.485 335.986 168.478C335.986 168.05 335.834 167.713 335.529 167.467C335.225 167.221 334.627 166.945 333.736 166.641L333.007 166.386C332.163 166.104 331.56 165.756 331.196 165.34C330.839 164.924 330.657 164.405 330.651 163.784C330.651 163.028 330.953 162.401 331.557 161.903C332.166 161.405 332.998 161.156 334.053 161.156C335.143 161.156 336.136 161.367 337.032 161.789L336.602 162.914C335.693 162.539 334.844 162.352 334.053 162.352C333.438 162.352 332.954 162.475 332.603 162.721C332.257 162.961 332.084 163.301 332.084 163.74C332.084 164.115 332.21 164.402 332.462 164.602C332.714 164.801 333.218 165.029 333.974 165.287C334.167 165.357 334.41 165.439 334.703 165.533C335.676 165.85 336.364 166.225 336.769 166.658C337.173 167.086 337.375 167.666 337.375 168.398C337.363 169.289 337.044 169.98 336.417 170.473C335.79 170.959 334.943 171.202 333.877 171.202ZM339.388 175.184V161.358H340.68L340.82 162.668C341.664 161.66 342.678 161.156 343.861 161.156C344.74 161.156 345.484 161.376 346.094 161.815C346.703 162.255 347.151 162.85 347.438 163.6C347.731 164.35 347.878 165.226 347.878 166.228C347.878 167.188 347.72 168.044 347.403 168.794C347.087 169.538 346.621 170.127 346.006 170.561C345.396 170.988 344.682 171.202 343.861 171.202C343.24 171.202 342.657 171.064 342.112 170.789C341.567 170.508 341.131 170.139 340.803 169.682C340.838 170.314 340.855 170.93 340.855 171.527V175.087L339.388 175.184ZM343.659 169.963C344.104 169.963 344.503 169.863 344.854 169.664C345.206 169.459 345.49 169.181 345.707 168.829C345.924 168.478 346.088 168.079 346.199 167.634C346.311 167.183 346.366 166.696 346.366 166.175C346.366 165.073 346.135 164.171 345.672 163.468C345.209 162.759 344.532 162.404 343.642 162.404C341.778 162.404 340.847 163.608 340.847 166.017C340.847 167.323 341.063 168.308 341.497 168.97C341.937 169.632 342.657 169.963 343.659 169.963ZM352.598 170.016C353.295 170.016 353.907 169.825 354.435 169.444C354.968 169.058 355.311 168.539 355.463 167.889V166.263C355.434 166.263 355.255 166.277 354.927 166.307C354.604 166.336 354.394 166.354 354.294 166.359C353.022 166.471 352.135 166.679 351.631 166.983C351.133 167.288 350.884 167.777 350.884 168.451C350.884 168.967 351.036 169.356 351.341 169.62C351.646 169.884 352.064 170.016 352.598 170.016ZM355.788 171C355.7 170.625 355.615 170.221 355.533 169.787C355 170.32 354.499 170.689 354.03 170.895C353.562 171.1 353.011 171.202 352.378 171.202C351.476 171.202 350.749 170.968 350.198 170.499C349.653 170.024 349.381 169.345 349.381 168.46C349.381 167.476 349.753 166.746 350.497 166.271C351.247 165.797 352.325 165.501 353.731 165.384C353.925 165.366 354.215 165.343 354.602 165.313C354.994 165.278 355.287 165.252 355.48 165.234V164.382C355.48 163.702 355.322 163.198 355.006 162.87C354.689 162.542 354.191 162.378 353.512 162.378C352.562 162.378 351.604 162.612 350.638 163.081C350.608 163.011 350.532 162.809 350.409 162.475C350.286 162.135 350.222 161.959 350.216 161.947C350.644 161.707 351.15 161.517 351.736 161.376C352.328 161.229 352.929 161.156 353.538 161.156C354.739 161.156 355.604 161.42 356.131 161.947C356.664 162.469 356.931 163.359 356.931 164.619V171H355.788ZM363.54 171.202C362.122 171.202 361.012 170.742 360.209 169.822C359.412 168.902 359.014 167.698 359.014 166.21C359.02 164.71 359.427 163.494 360.235 162.562C361.05 161.625 362.163 161.156 363.575 161.156C364.073 161.156 364.554 161.218 365.017 161.341C365.485 161.464 365.854 161.625 366.124 161.824L365.72 162.967C365.034 162.598 364.311 162.413 363.549 162.413C362.617 162.413 361.879 162.753 361.334 163.433C360.795 164.112 360.525 165.041 360.525 166.219C360.525 167.367 360.792 168.278 361.325 168.952C361.864 169.62 362.608 169.954 363.558 169.954C364.313 169.954 365.087 169.749 365.878 169.339L366.062 170.508C365.424 170.971 364.583 171.202 363.54 171.202ZM373.524 163.143C373.097 162.627 372.508 162.369 371.758 162.369C371.008 162.369 370.396 162.636 369.921 163.169C369.446 163.696 369.168 164.42 369.086 165.34H374.175C374.175 164.385 373.958 163.652 373.524 163.143ZM372.048 171.202C370.647 171.202 369.543 170.757 368.734 169.866C367.932 168.976 367.53 167.757 367.53 166.21C367.53 164.716 367.92 163.506 368.699 162.58C369.479 161.648 370.504 161.174 371.775 161.156C372.971 161.156 373.917 161.566 374.614 162.387C375.317 163.201 375.669 164.291 375.669 165.656C375.669 165.727 375.666 165.855 375.66 166.043C375.66 166.23 375.66 166.365 375.66 166.447H369.042C369.06 167.543 369.341 168.398 369.886 169.014C370.437 169.623 371.175 169.928 372.101 169.928C373.12 169.928 374.143 169.658 375.168 169.119L375.396 170.306C374.418 170.903 373.302 171.202 372.048 171.202ZM380.582 171.202C379.926 171.202 379.319 171.132 378.763 170.991C378.212 170.851 377.764 170.669 377.418 170.446L377.603 169.207C378.581 169.729 379.542 169.989 380.485 169.989C381.915 169.989 382.65 169.485 382.691 168.478C382.691 168.05 382.539 167.713 382.234 167.467C381.93 167.221 381.332 166.945 380.441 166.641L379.712 166.386C378.868 166.104 378.265 165.756 377.901 165.34C377.544 164.924 377.362 164.405 377.356 163.784C377.356 163.028 377.658 162.401 378.262 161.903C378.871 161.405 379.703 161.156 380.758 161.156C381.848 161.156 382.841 161.367 383.737 161.789L383.307 162.914C382.398 162.539 381.549 162.352 380.758 162.352C380.143 162.352 379.659 162.475 379.308 162.721C378.962 162.961 378.789 163.301 378.789 163.74C378.789 164.115 378.915 164.402 379.167 164.602C379.419 164.801 379.923 165.029 380.679 165.287C380.872 165.357 381.115 165.439 381.408 165.533C382.381 165.85 383.069 166.225 383.474 166.658C383.878 167.086 384.08 167.666 384.08 168.398C384.068 169.289 383.749 169.98 383.122 170.473C382.495 170.959 381.648 171.202 380.582 171.202ZM394.258 158.555C393.648 158.555 393.229 158.73 393.001 159.082C392.778 159.434 392.667 160.043 392.667 160.91V161.358H394.987V162.448H392.667V171H391.199V162.448H389.635L389.758 161.481L391.199 161.358V160.928C391.211 159.686 391.442 158.786 391.894 158.229C392.351 157.667 393.086 157.386 394.1 157.386C394.492 157.386 394.973 157.43 395.541 157.518L395.444 158.669C394.923 158.593 394.527 158.555 394.258 158.555ZM400.806 161.271C401.069 161.271 401.31 161.288 401.526 161.323L401.474 162.677C401.204 162.63 400.97 162.606 400.771 162.606C399.95 162.606 399.282 162.894 398.767 163.468C398.257 164.036 398.002 164.742 398.002 165.586V171H396.534C396.528 165.082 396.525 161.868 396.525 161.358H397.747L397.888 163.09C398.222 162.545 398.646 162.105 399.162 161.771C399.678 161.438 400.226 161.271 400.806 161.271ZM403.935 166.201C403.935 167.344 404.187 168.261 404.69 168.952C405.2 169.638 405.941 169.98 406.914 169.98C407.875 169.98 408.599 169.638 409.085 168.952C409.577 168.267 409.823 167.344 409.823 166.184C409.823 165.006 409.58 164.08 409.094 163.406C408.613 162.727 407.878 162.387 406.888 162.387C405.927 162.387 405.194 162.732 404.69 163.424C404.187 164.115 403.935 165.041 403.935 166.201ZM411.344 166.175C411.344 167.669 410.945 168.882 410.148 169.813C409.352 170.739 408.25 171.202 406.844 171.202C405.49 171.202 404.412 170.733 403.609 169.796C402.812 168.858 402.414 167.654 402.414 166.184C402.414 164.684 402.815 163.471 403.618 162.545C404.421 161.619 405.522 161.156 406.923 161.156C408.3 161.156 409.381 161.622 410.166 162.554C410.951 163.479 411.344 164.687 411.344 166.175ZM425.67 171V165.981C425.67 165.513 425.658 165.12 425.635 164.804C425.617 164.487 425.57 164.165 425.494 163.837C425.424 163.509 425.321 163.251 425.187 163.063C425.058 162.87 424.876 162.715 424.642 162.598C424.407 162.475 424.126 162.413 423.798 162.413C423.153 162.413 422.603 162.586 422.146 162.932C421.694 163.277 421.372 163.764 421.179 164.391C421.126 164.812 421.1 165.264 421.1 165.744V171H419.632V165.823C419.632 165.39 419.617 165.015 419.588 164.698C419.559 164.376 419.503 164.065 419.421 163.767C419.339 163.462 419.228 163.216 419.087 163.028C418.952 162.841 418.771 162.691 418.542 162.58C418.313 162.469 418.041 162.413 417.725 162.413C417.021 162.413 416.43 162.592 415.949 162.949C415.475 163.307 415.155 163.781 414.991 164.373C414.938 164.824 414.912 165.313 414.912 165.841V171H413.444C413.433 164.971 413.427 161.757 413.427 161.358H414.657L414.842 162.738C415.135 162.293 415.551 161.918 416.09 161.613C416.629 161.309 417.241 161.156 417.927 161.156C418.284 161.156 418.612 161.194 418.911 161.271C419.216 161.341 419.468 161.432 419.667 161.543C419.872 161.654 420.054 161.789 420.212 161.947C420.37 162.1 420.493 162.252 420.581 162.404C420.669 162.551 420.742 162.706 420.801 162.87C421.504 161.728 422.579 161.156 424.026 161.156C425.099 161.156 425.884 161.464 426.382 162.079C426.886 162.688 427.138 163.594 427.138 164.795V171H425.67ZM436.595 171.176C435.646 171.176 434.972 170.944 434.573 170.481C434.175 170.019 433.964 169.271 433.94 168.24V162.448H432.508L432.569 161.481L433.932 161.358L434.433 159.152L435.399 159.117V161.358H438.08V162.448H435.399V167.977C435.399 168.709 435.511 169.225 435.733 169.523C435.956 169.822 436.337 169.972 436.876 169.972C437.069 169.972 437.488 169.925 438.133 169.831L438.194 170.991C437.497 171.114 436.964 171.176 436.595 171.176ZM446.254 171V165.173C446.254 164.206 446.099 163.503 445.788 163.063C445.483 162.624 444.947 162.404 444.18 162.404C443.441 162.404 442.817 162.589 442.308 162.958C441.804 163.327 441.476 163.805 441.323 164.391C441.271 164.83 441.244 165.319 441.244 165.858V171H439.776V157.614L441.244 157.526V161.446C441.244 161.78 441.232 162.193 441.209 162.686C442.035 161.666 443.131 161.156 444.496 161.156C446.646 161.156 447.722 162.419 447.722 164.944V171H446.254ZM455.087 163.143C454.659 162.627 454.07 162.369 453.32 162.369C452.57 162.369 451.958 162.636 451.483 163.169C451.009 163.696 450.73 164.42 450.648 165.34H455.737C455.737 164.385 455.521 163.652 455.087 163.143ZM453.61 171.202C452.21 171.202 451.105 170.757 450.297 169.866C449.494 168.976 449.093 167.757 449.093 166.21C449.093 164.716 449.482 163.506 450.262 162.58C451.041 161.648 452.066 161.174 453.338 161.156C454.533 161.156 455.479 161.566 456.177 162.387C456.88 163.201 457.231 164.291 457.231 165.656C457.231 165.727 457.229 165.855 457.223 166.043C457.223 166.23 457.223 166.365 457.223 166.447H450.604C450.622 167.543 450.903 168.398 451.448 169.014C451.999 169.623 452.737 169.928 453.663 169.928C454.683 169.928 455.705 169.658 456.73 169.119L456.959 170.306C455.98 170.903 454.864 171.202 453.61 171.202ZM467.849 171.202C466.431 171.202 465.32 170.742 464.518 169.822C463.721 168.902 463.322 167.698 463.322 166.21C463.328 164.71 463.735 163.494 464.544 162.562C465.358 161.625 466.472 161.156 467.884 161.156C468.382 161.156 468.862 161.218 469.325 161.341C469.794 161.464 470.163 161.625 470.433 161.824L470.028 162.967C469.343 162.598 468.619 162.413 467.857 162.413C466.926 162.413 466.188 162.753 465.643 163.433C465.104 164.112 464.834 165.041 464.834 166.219C464.834 167.367 465.101 168.278 465.634 168.952C466.173 169.62 466.917 169.954 467.866 169.954C468.622 169.954 469.396 169.749 470.187 169.339L470.371 170.508C469.732 170.971 468.892 171.202 467.849 171.202ZM473.351 166.201C473.351 167.344 473.603 168.261 474.106 168.952C474.616 169.638 475.357 169.98 476.33 169.98C477.291 169.98 478.015 169.638 478.501 168.952C478.993 168.267 479.239 167.344 479.239 166.184C479.239 165.006 478.996 164.08 478.51 163.406C478.029 162.727 477.294 162.387 476.304 162.387C475.343 162.387 474.61 162.732 474.106 163.424C473.603 164.115 473.351 165.041 473.351 166.201ZM480.76 166.175C480.76 167.669 480.361 168.882 479.564 169.813C478.768 170.739 477.666 171.202 476.26 171.202C474.906 171.202 473.828 170.733 473.025 169.796C472.229 168.858 471.83 167.654 471.83 166.184C471.83 164.684 472.231 163.471 473.034 162.545C473.837 161.619 474.938 161.156 476.339 161.156C477.716 161.156 478.797 161.622 479.582 162.554C480.367 163.479 480.76 164.687 480.76 166.175ZM495.086 171V165.981C495.086 165.513 495.074 165.12 495.051 164.804C495.033 164.487 494.986 164.165 494.91 163.837C494.84 163.509 494.737 163.251 494.603 163.063C494.474 162.87 494.292 162.715 494.058 162.598C493.823 162.475 493.542 162.413 493.214 162.413C492.569 162.413 492.019 162.586 491.562 162.932C491.11 163.277 490.788 163.764 490.595 164.391C490.542 164.812 490.516 165.264 490.516 165.744V171H489.048V165.823C489.048 165.39 489.033 165.015 489.004 164.698C488.975 164.376 488.919 164.065 488.837 163.767C488.755 163.462 488.644 163.216 488.503 163.028C488.368 162.841 488.187 162.691 487.958 162.58C487.729 162.469 487.457 162.413 487.141 162.413C486.438 162.413 485.846 162.592 485.365 162.949C484.891 163.307 484.571 163.781 484.407 164.373C484.354 164.824 484.328 165.313 484.328 165.841V171H482.86C482.849 164.971 482.843 161.757 482.843 161.358H484.073L484.258 162.738C484.551 162.293 484.967 161.918 485.506 161.613C486.045 161.309 486.657 161.156 487.343 161.156C487.7 161.156 488.028 161.194 488.327 161.271C488.632 161.341 488.884 161.432 489.083 161.543C489.288 161.654 489.47 161.789 489.628 161.947C489.786 162.1 489.909 162.252 489.997 162.404C490.085 162.551 490.158 162.706 490.217 162.87C490.92 161.728 491.995 161.156 493.442 161.156C494.515 161.156 495.3 161.464 495.798 162.079C496.302 162.688 496.554 163.594 496.554 164.795V171H495.086ZM502.1 158.555C501.49 158.555 501.071 158.73 500.843 159.082C500.62 159.434 500.509 160.043 500.509 160.91V161.358H502.829V162.448H500.509V171H499.041V162.448H497.477L497.6 161.481L499.041 161.358V160.928C499.053 159.686 499.284 158.786 499.735 158.229C500.192 157.667 500.928 157.386 501.941 157.386C502.334 157.386 502.814 157.43 503.383 157.518L503.286 158.669C502.765 158.593 502.369 158.555 502.1 158.555ZM505.308 166.201C505.308 167.344 505.56 168.261 506.063 168.952C506.573 169.638 507.314 169.98 508.287 169.98C509.248 169.98 509.972 169.638 510.458 168.952C510.95 168.267 511.196 167.344 511.196 166.184C511.196 165.006 510.953 164.08 510.467 163.406C509.986 162.727 509.251 162.387 508.261 162.387C507.3 162.387 506.567 162.732 506.063 163.424C505.56 164.115 505.308 165.041 505.308 166.201ZM512.717 166.175C512.717 167.669 512.318 168.882 511.521 169.813C510.725 170.739 509.623 171.202 508.217 171.202C506.863 171.202 505.785 170.733 504.982 169.796C504.186 168.858 503.787 167.654 503.787 166.184C503.787 164.684 504.188 163.471 504.991 162.545C505.794 161.619 506.896 161.156 508.296 161.156C509.673 161.156 510.754 161.622 511.539 162.554C512.324 163.479 512.717 164.687 512.717 166.175ZM519.124 161.271C519.388 161.271 519.628 161.288 519.845 161.323L519.792 162.677C519.522 162.63 519.288 162.606 519.089 162.606C518.269 162.606 517.601 162.894 517.085 163.468C516.575 164.036 516.32 164.742 516.32 165.586V171H514.853C514.847 165.082 514.844 161.868 514.844 161.358H516.065L516.206 163.09C516.54 162.545 516.965 162.105 517.48 161.771C517.996 161.438 518.544 161.271 519.124 161.271ZM524.433 171.176C523.483 171.176 522.81 170.944 522.411 170.481C522.013 170.019 521.802 169.271 521.778 168.24V162.448H520.346L520.407 161.481L521.77 161.358L522.271 159.152L523.237 159.117V161.358H525.918V162.448H523.237V167.977C523.237 168.709 523.349 169.225 523.571 169.523C523.794 169.822 524.175 169.972 524.714 169.972C524.907 169.972 525.326 169.925 525.971 169.831L526.032 170.991C525.335 171.114 524.802 171.176 524.433 171.176ZM533.169 166.201C533.169 167.344 533.421 168.261 533.925 168.952C534.435 169.638 535.176 169.98 536.148 169.98C537.109 169.98 537.833 169.638 538.319 168.952C538.812 168.267 539.058 167.344 539.058 166.184C539.058 165.006 538.814 164.08 538.328 163.406C537.848 162.727 537.112 162.387 536.122 162.387C535.161 162.387 534.429 162.732 533.925 163.424C533.421 164.115 533.169 165.041 533.169 166.201ZM540.578 166.175C540.578 167.669 540.18 168.882 539.383 169.813C538.586 170.739 537.484 171.202 536.078 171.202C534.725 171.202 533.646 170.733 532.844 169.796C532.047 168.858 531.648 167.654 531.648 166.184C531.648 164.684 532.05 163.471 532.853 162.545C533.655 161.619 534.757 161.156 536.157 161.156C537.534 161.156 538.615 161.622 539.4 162.554C540.186 163.479 540.578 164.687 540.578 166.175ZM546.326 158.555C545.717 158.555 545.298 158.73 545.069 159.082C544.847 159.434 544.735 160.043 544.735 160.91V161.358H547.056V162.448H544.735V171H543.268V162.448H541.703L541.826 161.481L543.268 161.358V160.928C543.279 159.686 543.511 158.786 543.962 158.229C544.419 157.667 545.154 157.386 546.168 157.386C546.561 157.386 547.041 157.43 547.609 157.518L547.513 158.669C546.991 158.593 546.596 158.555 546.326 158.555ZM551.819 161.358H553.375L556.416 169.383L559.123 161.358H560.679C558.077 168.519 556.732 172.21 556.645 172.433C556.24 173.446 555.751 174.188 555.177 174.656C554.603 175.131 553.847 175.368 552.909 175.368C552.628 175.368 552.332 175.345 552.021 175.298L551.934 174.05C552.262 174.073 552.508 174.085 552.672 174.085C553.334 174.085 553.835 173.962 554.175 173.716C554.521 173.476 554.828 173.021 555.098 172.354C555.338 171.738 555.517 171.264 555.634 170.93L551.819 161.358ZM562.929 166.201C562.929 167.344 563.181 168.261 563.685 168.952C564.194 169.638 564.936 169.98 565.908 169.98C566.869 169.98 567.593 169.638 568.079 168.952C568.571 168.267 568.817 167.344 568.817 166.184C568.817 165.006 568.574 164.08 568.088 163.406C567.607 162.727 566.872 162.387 565.882 162.387C564.921 162.387 564.188 162.732 563.685 163.424C563.181 164.115 562.929 165.041 562.929 166.201ZM570.338 166.175C570.338 167.669 569.939 168.882 569.143 169.813C568.346 170.739 567.244 171.202 565.838 171.202C564.484 171.202 563.406 170.733 562.604 169.796C561.807 168.858 561.408 167.654 561.408 166.184C561.408 164.684 561.81 163.471 562.612 162.545C563.415 161.619 564.517 161.156 565.917 161.156C567.294 161.156 568.375 161.622 569.16 162.554C569.945 163.479 570.338 164.687 570.338 166.175ZM572.087 167.783V161.358H573.563V167.801C573.563 168.223 573.622 168.58 573.739 168.873C573.862 169.166 574.035 169.395 574.258 169.559C574.486 169.717 574.741 169.831 575.022 169.901C575.31 169.972 575.638 170.007 576.007 170.007C576.769 170.007 577.36 169.84 577.782 169.506C578.21 169.172 578.424 168.604 578.424 167.801V161.358H579.9V167.783C579.9 168.275 579.83 168.718 579.689 169.11C579.549 169.503 579.358 169.831 579.118 170.095C578.884 170.353 578.6 170.566 578.266 170.736C577.932 170.906 577.577 171.029 577.202 171.105C576.833 171.182 576.435 171.22 576.007 171.22C575.585 171.22 575.187 171.182 574.812 171.105C574.437 171.029 574.079 170.906 573.739 170.736C573.405 170.561 573.115 170.344 572.869 170.086C572.629 169.822 572.438 169.494 572.298 169.102C572.157 168.709 572.087 168.27 572.087 167.783ZM586.413 161.271C586.677 161.271 586.917 161.288 587.134 161.323L587.081 162.677C586.812 162.63 586.577 162.606 586.378 162.606C585.558 162.606 584.89 162.894 584.374 163.468C583.864 164.036 583.609 164.742 583.609 165.586V171H582.142C582.136 165.082 582.133 161.868 582.133 161.358H583.354L583.495 163.09C583.829 162.545 584.254 162.105 584.77 161.771C585.285 161.438 585.833 161.271 586.413 161.271ZM599.641 171V165.173C599.641 164.206 599.485 163.503 599.175 163.063C598.87 162.624 598.334 162.404 597.566 162.404C596.828 162.404 596.204 162.589 595.694 162.958C595.19 163.327 594.862 163.805 594.71 164.391C594.657 164.83 594.631 165.319 594.631 165.858V171H593.163V157.614L594.631 157.526V161.446C594.631 161.78 594.619 162.193 594.596 162.686C595.422 161.666 596.518 161.156 597.883 161.156C600.033 161.156 601.108 162.419 601.108 164.944V171H599.641ZM603.991 166.201C603.991 167.344 604.243 168.261 604.747 168.952C605.257 169.638 605.998 169.98 606.971 169.98C607.932 169.98 608.655 169.638 609.142 168.952C609.634 168.267 609.88 167.344 609.88 166.184C609.88 165.006 609.637 164.08 609.15 163.406C608.67 162.727 607.935 162.387 606.944 162.387C605.983 162.387 605.251 162.732 604.747 163.424C604.243 164.115 603.991 165.041 603.991 166.201ZM611.4 166.175C611.4 167.669 611.002 168.882 610.205 169.813C609.408 170.739 608.307 171.202 606.9 171.202C605.547 171.202 604.469 170.733 603.666 169.796C602.869 168.858 602.471 167.654 602.471 166.184C602.471 164.684 602.872 163.471 603.675 162.545C604.478 161.619 605.579 161.156 606.979 161.156C608.356 161.156 609.438 161.622 610.223 162.554C611.008 163.479 611.4 164.687 611.4 166.175ZM625.727 171V165.981C625.727 165.513 625.715 165.12 625.691 164.804C625.674 164.487 625.627 164.165 625.551 163.837C625.48 163.509 625.378 163.251 625.243 163.063C625.114 162.87 624.933 162.715 624.698 162.598C624.464 162.475 624.183 162.413 623.854 162.413C623.21 162.413 622.659 162.586 622.202 162.932C621.751 163.277 621.429 163.764 621.235 164.391C621.183 164.812 621.156 165.264 621.156 165.744V171H619.688V165.823C619.688 165.39 619.674 165.015 619.645 164.698C619.615 164.376 619.56 164.065 619.478 163.767C619.396 163.462 619.284 163.216 619.144 163.028C619.009 162.841 618.827 162.691 618.599 162.58C618.37 162.469 618.098 162.413 617.781 162.413C617.078 162.413 616.486 162.592 616.006 162.949C615.531 163.307 615.212 163.781 615.048 164.373C614.995 164.824 614.969 165.313 614.969 165.841V171H613.501C613.489 164.971 613.483 161.757 613.483 161.358H614.714L614.898 162.738C615.191 162.293 615.607 161.918 616.146 161.613C616.686 161.309 617.298 161.156 617.983 161.156C618.341 161.156 618.669 161.194 618.968 161.271C619.272 161.341 619.524 161.432 619.724 161.543C619.929 161.654 620.11 161.789 620.269 161.947C620.427 162.1 620.55 162.252 620.638 162.404C620.726 162.551 620.799 162.706 620.857 162.87C621.561 161.728 622.636 161.156 624.083 161.156C625.155 161.156 625.94 161.464 626.438 162.079C626.942 162.688 627.194 163.594 627.194 164.795V171H625.727ZM634.63 163.143C634.202 162.627 633.613 162.369 632.863 162.369C632.113 162.369 631.501 162.636 631.026 163.169C630.552 163.696 630.273 164.42 630.191 165.34H635.28C635.28 164.385 635.063 163.652 634.63 163.143ZM633.153 171.202C631.753 171.202 630.648 170.757 629.84 169.866C629.037 168.976 628.636 167.757 628.636 166.21C628.636 164.716 629.025 163.506 629.805 162.58C630.584 161.648 631.609 161.174 632.881 161.156C634.076 161.156 635.022 161.566 635.72 162.387C636.423 163.201 636.774 164.291 636.774 165.656C636.774 165.727 636.771 165.855 636.766 166.043C636.766 166.23 636.766 166.365 636.766 166.447H630.147C630.165 167.543 630.446 168.398 630.991 169.014C631.542 169.623 632.28 169.928 633.206 169.928C634.226 169.928 635.248 169.658 636.273 169.119L636.502 170.306C635.523 170.903 634.407 171.202 633.153 171.202ZM639.851 171.105C639.487 171.105 639.2 170.991 638.989 170.763C638.784 170.528 638.682 170.256 638.682 169.945C638.682 169.629 638.784 169.356 638.989 169.128C639.194 168.899 639.481 168.785 639.851 168.785C640.22 168.785 640.507 168.899 640.712 169.128C640.917 169.356 641.02 169.629 641.02 169.945C641.02 170.262 640.917 170.534 640.712 170.763C640.507 170.991 640.22 171.105 639.851 171.105Z" fill="#663D3B"/>
</svg>
